<svg width="25" height="25" viewBox="0 0 25 25" fill="none" xmlns="http://www.w3.org/2000/svg">
<path d="M17.1875 0H7.8125C3.49844 0 0 3.49844 0 7.8125V17.1875C0 21.5016 3.49844 25 7.8125 25H17.1875C21.5016 25 25 21.5016 25 17.1875V7.8125C25 3.49844 21.5016 0 17.1875 0ZM22.6562 17.1875C22.6562 20.2031 20.2031 22.6562 17.1875 22.6562H7.8125C4.79688 22.6562 2.34375 20.2031 2.34375 17.1875V7.8125C2.34375 4.79688 4.79688 2.34375 7.8125 2.34375H17.1875C20.2031 2.34375 22.6562 4.79688 22.6562 7.8125V17.1875Z" fill="#E0E0E0"/>
</svg>
